Coordinates
version=1
nRows=8
nColumns=36
inDegrees=yes

Units are S.I. units (second, meters, Newtons, ...)
If the header above contains a line with 'inDegrees', this indicates whether rotational values are in degrees (yes) or radians (no).

endheader
time	pelvis_tilt	pelvis_list	pelvis_rotation	pelvis_tx	pelvis_ty	pelvis_tz	hip_flexion_r	hip_adduction_r	hip_rotation_r	knee_angle_r	knee_angle_r_beta	ankle_angle_r	subtalar_angle_r	mtp_angle_r	hip_flexion_l	hip_adduction_l	hip_rotation_l	knee_angle_l	knee_angle_l_beta	ankle_angle_l	subtalar_angle_l	mtp_angle_l	lumbar_extension	lumbar_bending	lumbar_rotation	arm_flex_r	arm_add_r	arm_rot_r	elbow_flex_r	pro_sup_r	arm_flex_l	arm_add_l	arm_rot_l	elbow_flex_l	pro_sup_l
      2.16666670	    -26.51205427	      1.47178683	     -7.62107969	      1.09753944	      0.66087730	      0.02952730	     86.92136434	    -14.81900509	     -1.41750621	     90.25593415	      1.57526322	     34.12961784	    -13.95153062	     -7.49999987	     89.50614994	    -16.49737195	      1.14537294	     90.54917137	      1.58038118	     29.74391983	    -19.41803745	     -7.49999987	     -8.55222535	      1.11223867	      6.88646233	     64.40303226	    -14.51774399	     47.64181405	    124.88329665	    102.10086973	     76.02850371	      1.95334704	     61.92464998	    120.92838942	    103.45218236
      2.18333330	    -26.55517302	      1.34686337	     -7.68229182	      1.09745001	      0.66107207	      0.02959253	     86.80510881	    -14.69548928	     -1.65009158	     90.04647025	      1.57160739	     33.97848456	    -14.10599667	     -7.49999987	     89.52698118	    -16.59549391	      1.27935866	     90.37366085	      1.57731794	     29.50369398	    -19.55088908	     -7.49999987	     -8.05899814	      1.26715986	      6.55574658	     65.57598010	    -11.16487461	     56.74305528	    129.96970487	    103.72552443	     75.78128737	      1.93771141	     61.74639364	    122.16413172	    102.74055151
      2.20000000	    -26.73828663	      1.41244074	     -7.71618197	      1.09784376	      0.66783242	      0.02933665	     86.68794372	    -14.58702148	     -1.74806418	     89.54275532	      1.56281590	     33.67722180	    -14.25225919	     -7.49999987	     89.38798458	    -16.57600577	      1.20053469	     89.88352356	      1.56876343	     29.27054968	    -19.60332168	     -7.49999987	     -7.36983613	      1.06190086	      6.62996740	     66.16628983	     -9.26665662	     63.51002123	    132.35605764	    104.40695477	     75.05596553	      2.74727196	     63.24653274	    121.98342004	    102.87664021
      2.21666670	    -26.61151913	      1.40103088	     -7.82217251	      1.09182173	      0.66706871	      0.02518579	     86.40538438	    -14.49790932	     -1.85998111	     89.12996185	      1.55561130	     33.35108851	    -14.38437543	     -7.49999987	     89.08809734	    -16.63254109	      1.09669050	     89.51339878	      1.56230353	     28.90160228	    -19.69961862	     -7.49999987	     -7.11900378	      1.19095117	      6.16454608	     67.83967473	     -7.99879985	     66.20321333	    132.35939149	    104.91331359	     75.70896706	      2.78468775	     63.38761643	    120.99368326	    103.16062396
      2.23333330	    -26.46609650	      1.38157724	     -7.86701665	      1.09750160	      0.67406221	      0.02842553	     85.80697687	    -14.40655672	     -2.05229877	     88.42286372	      1.54327011	     33.03782537	    -14.44886822	     -7.49999987	     88.47840869	    -16.56390361	      1.01816969	     88.84433953	      1.55062625	     28.56263199	    -19.85842543	     -7.49999987	     -7.09809923	      1.42029912	      6.35903020	     68.29433726	     -7.97192599	     67.44518831	    131.55930141	    105.22378809	     75.12049781	      2.61479712	     64.54419530	    120.77681301	    103.63297392
      2.25000000	    -26.24237407	      1.33720341	     -7.83182832	      1.09743127	      0.68081360	      0.02846484	     84.94384589	    -14.35450232	     -2.23866083	     87.53413733	      1.52775890	     32.71727455	    -14.48238446	     -7.49999987	     87.57658075	    -16.46380902	      0.86527741	     87.94121765	      1.53486380	     28.32017528	    -19.94201565	     -7.49999987	     -6.94832740	      1.50886065	      6.49013066	     68.07791823	     -7.90130539	     67.23991348	    131.12426770	    104.23597424	     75.02572578	      2.45904518	     64.50963469	    121.07804993	    102.82020976
      2.26666670	    -25.93180363	      1.38426185	     -7.79955563	      1.09752447	      0.68823503	      0.02812189	     83.86057659	    -14.31605244	     -2.38204882	     86.44700569	      1.50878488	     32.23130541	    -14.57369755	     -7.49999987	     86.38216370	    -16.31667709	      0.58607698	     86.80369263	      1.51501024	     27.94678497	    -20.01380091	     -7.49999987	     -6.79762514	      1.49092932	      6.57960186	     67.38228844	     -7.87476121	     67.43783322	    130.80244282	    104.11482562	     74.38080436	      2.15489148	     63.65386182	    120.91902755	    102.83508866
      2.28333330	    -25.76355968	      1.39602548	     -7.72228818	      1.09766614	      0.69890326	      0.02838311	     82.71746087	    -14.26308833	     -2.59833431	     85.07082761	      1.48476604	     31.70234487	    -14.46928955	     -7.49999987	     85.16564744	    -16.14447341	      0.30765248	     85.41074993	      1.49069880	     27.64302706	    -19.77777049	     -7.49999987	     -6.55953241	      1.48780034	      6.68488237	     66.79066330	     -8.11609469	     67.82897697	    130.33349423	    104.10811810	     73.84476394	      2.11747662	     63.56354775	    120.84077874	    102.91436347
